<?xml version="1.0" encoding="UTF-8"?>
<svg width="16px" height="16px" viewBox="0 0 16 16" version="1.1" xmlns="http://www.w3.org/2000/svg" xmlns:xlink="http://www.w3.org/1999/xlink" style="background: #223042;">
    <!-- Generator: Sketch 49.3 (51167) - http://www.bohemiancoding.com/sketch -->
    <title>Icons / Settings / White</title>
    <desc>Created with Sketch.</desc>
    <defs></defs>
    <g id="Icons-/-Settings-/-White" stroke="none" stroke-width="1" fill="none" fill-rule="evenodd">
        <g id="Settings" transform="translate(1.750000, 1.750000)" stroke-width="0.701">
            <path d="M12.3639306,6.90953824 C12.3639306,6.94640798 12.3381159,6.97737857 12.3012377,6.98327773 L11.1049106,7.18311176 C10.9537102,7.20818319 10.834225,7.31952983 10.7966093,7.46479664 C10.6889251,7.88363697 10.523711,8.28551723 10.3009669,8.65863908 C10.2242604,8.78915798 10.2294233,8.95212227 10.3186685,9.07674202 L11.0223035,10.0685382 C11.0422177,10.0965592 11.0392675,10.1393282 11.0134528,10.165137 L10.1645178,11.0138786 C10.1446036,11.0337882 10.1246894,11.0367378 10.1099381,11.0367378 C10.0929742,11.0367378 10.0789605,11.0308387 10.067897,11.0227273 L9.0788251,10.3192525 C8.95638964,10.2307651 8.79117553,10.224866 8.66062689,10.301555 C8.28742002,10.5235109 7.8854482,10.6886874 7.46651243,10.7970845 C7.31826227,10.8346916 7.20762782,10.9570992 7.18476337,11.1045782 L6.98193355,12.3013702 C6.97603305,12.3382399 6.9450554,12.3640487 6.90817725,12.3640487 L5.70889985,12.3640487 C5.6720217,12.3640487 5.6403065,12.3382399 5.63440599,12.3013702 L5.43452643,11.1045782 C5.40944929,10.9541496 5.29807728,10.8346916 5.15351493,10.7970845 C4.74564261,10.691637 4.35252154,10.5294101 3.98521518,10.3192525 C3.92547258,10.284595 3.85687922,10.2676349 3.79123611,10.2676349 C3.713792,10.2676349 3.63487276,10.2904941 3.56922966,10.3384248 L2.57204451,11.0477987 C2.55729325,11.0566475 2.54401712,11.0625466 2.52926586,11.0625466 C2.51746485,11.0625466 2.4946004,11.0595971 2.47542376,11.0396874 L1.62575121,10.1909458 C1.59993651,10.165137 1.59698626,10.1253176 1.61763802,10.0936097 L2.31832285,9.11139958 C2.40683041,8.98604244 2.41273091,8.82086597 2.3352868,8.68960966 C2.11328034,8.31943739 1.94216573,7.91755714 1.83448154,7.49871681 C1.79391557,7.35418739 1.67443037,7.24284076 1.52691777,7.21703193 L0.321002307,7.01203613 C0.284124158,7.00613697 0.258309454,6.97516639 0.258309454,6.93829664 L0.258309454,5.73855504 C0.258309454,5.70168529 0.284124158,5.66997731 0.321002307,5.66481555 L1.50921626,5.46571891 C1.65967911,5.43991008 1.78285213,5.32856345 1.81973028,5.18034706 C1.92520178,4.76150672 2.08746564,4.35741429 2.30652184,3.98429244 C2.38396595,3.85303613 2.3751152,3.69080924 2.2873452,3.56840168 L1.57780962,2.5714437 C1.55789542,2.54268529 1.56084567,2.50065378 1.58666038,2.47410756 L2.4348578,1.62536597 C2.454772,1.6061937 2.47542376,1.60324412 2.4886999,1.60324412 C2.50640141,1.60324412 2.5204151,1.60914328 2.53221611,1.61725462 L3.51465,2.31777983 C3.6400357,2.40626723 3.80524981,2.41142899 3.93653602,2.33473992 C4.30679263,2.11278403 4.70876446,1.9417084 5.12696266,1.83404874 C5.27300013,1.79422941 5.38363458,1.67403403 5.40944929,1.52581765 L5.61522936,0.320914286 C5.61965473,0.284044538 5.65136994,0.258235714 5.68824809,0.258235714 L6.88826305,0.258235714 C6.9251412,0.258235714 6.95685641,0.284044538 6.96201935,0.320914286 L7.16116136,1.50885756 C7.18697606,1.66002353 7.29834807,1.78243109 7.44659823,1.81930084 C7.87659744,1.9276979 8.28742002,2.09582395 8.66874008,2.32072941 C8.80002629,2.39741849 8.96229015,2.39225672 9.08767585,2.30376933 L10.0708473,1.59734496 C10.084861,1.58849622 10.0988747,1.58259706 10.1128884,1.58259706 C10.1246894,1.58259706 10.1475538,1.58554664 10.1667305,1.6061937 L11.016403,2.4541979 C11.0422177,2.48000672 11.045168,2.51982605 11.0252538,2.55153403 L10.3208811,3.53964328 C10.2323736,3.66205084 10.2272107,3.82722731 10.3039172,3.95848361 C10.5266612,4.33160546 10.6911378,4.73348571 10.7995595,5.15232605 C10.8371752,5.29980504 10.9596107,5.41115168 11.1078608,5.43401092 L12.304188,5.63605714 C12.3410661,5.6419563 12.3668808,5.67292689 12.3668808,5.71053403 L12.3668808,5.90953824 L12.3639306,6.90953824 Z" id="Stroke-1" stroke="#FFFFFF" fill="#FFFFFF"></path>
            <path d="M6.30863508,8.48151681 C5.10889349,8.48151681 4.13553214,7.50741807 4.13553214,6.30841387 C4.13553214,5.10940966 5.10889349,4.13457353 6.30863508,4.13457353 C7.50763929,4.13457353 8.48173803,5.10940966 8.48173803,6.30841387 C8.48173803,7.50741807 7.50763929,8.48151681 6.30863508,8.48151681 Z" id="Stroke-3" stroke="#223043" fill="#223043"></path>
        </g>
    </g>
</svg>