<?xml version="1.0" encoding="utf-8"?>
<!-- Generator: Adobe Illustrator 21.0.2, SVG Export Plug-In . SVG Version: 6.00 Build 0)  -->
<svg version="1.1" id="Layer_1" xmlns="http://www.w3.org/2000/svg" xmlns:xlink="http://www.w3.org/1999/xlink" x="0px" y="0px"
	 viewBox="0 0 16 16" style="enable-background:new 0 0 16 16;" xml:space="preserve">
<style type="text/css">
	.st0{fill:#223042;}
</style>
<title>Icons / Members</title>
<desc>Created with Sketch.</desc>
<g>
	<path class="st0" d="M8,8c1.9,0,3.5-1.6,3.5-3.5S9.9,1,8,1S4.5,2.6,4.5,4.5S6.1,8,8,8z M8,2c1.4,0,2.5,1.1,2.5,2.5S9.4,7,8,7
		C6.6,7,5.5,5.9,5.5,4.5S6.6,2,8,2z"/>
	<path class="st0" d="M10.7,9.4H5.3c-2,0-3.5,1.6-3.5,3.5v1.5C1.8,14.7,2,15,2.3,15s0.5-0.2,0.5-0.5v-1.5c0-1.4,1.1-2.5,2.5-2.5h5.3
		c1.4,0,2.5,1.1,2.5,2.5v1.5c0,0.3,0.2,0.5,0.5,0.5s0.5-0.2,0.5-0.5v-1.5C14.2,11,12.6,9.4,10.7,9.4z"/>
</g>
</svg>
