<?xml version="1.0" encoding="utf-8"?>
<!-- Generator: Adobe Illustrator 22.1.0, SVG Export Plug-In . SVG Version: 6.00 Build 0)  -->
<svg version="1.1" id="Layer_1" xmlns="http://www.w3.org/2000/svg" xmlns:xlink="http://www.w3.org/1999/xlink" x="0px" y="0px"
	 viewBox="0 0 15 15" style="enable-background:new 0 0 15 15;" xml:space="preserve">
<style type="text/css">
	.st0{fill:#FF9D9D;}
</style>
<g>
	<path class="st0" d="M8,9.2H3.2C1.4,9.2,0,10.5,0,12.1v1.2c0,0.3,0.2,0.6,0.5,0.6S1,13.7,1,13.4v-1.2c0-1.1,1-2,2.2-2H8
		c1.2,0,2.2,0.9,2.2,1.9v1.3c0,0.3,0.2,0.5,0.5,0.5s0.5-0.2,0.5-0.5v-1.3C11.2,10.5,9.8,9.2,8,9.2z"/>
	<path class="st0" d="M5.6,7.8c1.8,0,3.2-1.5,3.2-3.3S7.4,1.2,5.6,1.2c-1.8,0-3.2,1.5-3.2,3.3S3.8,7.8,5.6,7.8z M5.6,2.2
		c1.2,0,2.2,1,2.2,2.3s-1,2.3-2.2,2.3c-1.2,0-2.2-1-2.2-2.3S4.4,2.2,5.6,2.2z"/>
	<path class="st0" d="M14.5,6.9h-1.6V5.2c0-0.2-0.2-0.4-0.4-0.4S12.1,5,12.1,5.2v1.7h-1.7c-0.2,0-0.4,0.2-0.4,0.4s0.2,0.4,0.4,0.4
		h1.7v1.7c0,0.2,0.2,0.4,0.4,0.4s0.4-0.2,0.4-0.4V7.7h1.6c0.2,0,0.4-0.2,0.4-0.4S14.7,6.9,14.5,6.9z"/>
</g>
</svg>
