<?xml version="1.0" encoding="utf-8"?>
<!-- Generator: Adobe Illustrator 21.0.2, SVG Export Plug-In . SVG Version: 6.00 Build 0)  -->
<svg version="1.1" id="Layer_1" xmlns="http://www.w3.org/2000/svg" xmlns:xlink="http://www.w3.org/1999/xlink" x="0px" y="0px"
	 viewBox="0 0 33.2 29.8" style="enable-background:new 0 0 33.2 29.8;" xml:space="preserve">
<style type="text/css">
	.st0{fill:#223042;}
</style>
<title>Icons / Picture / Selected</title>
<desc>Created with Sketch.</desc>
<g id="Icons-_x2F_-Picture-_x2F_-Hover">
	<g id="Group_1_" transform="translate(0.500000, 2.000000)">
		<g id="image" transform="translate(1.806452, 8.032258)">
			<g id="Oval_1_">
				<path class="st0" d="M9.8,3.1c-1.3,0-2.3-1-2.3-2.3c0-1.3,1-2.3,2.3-2.3c1.3,0,2.3,1,2.3,2.3C12.1,2,11.1,3.1,9.8,3.1z M9.8-0.5
					c-0.7,0-1.3,0.6-1.3,1.3c0,0.7,0.6,1.3,1.3,1.3c0.7,0,1.3-0.6,1.3-1.3C11.1,0.1,10.5-0.5,9.8-0.5z"/>
			</g>
			<g id="Shape_2_">
				<path class="st0" d="M5.6,16.3c-0.1,0-0.3,0-0.4-0.1c-0.2-0.2-0.2-0.5,0-0.7L18.5,2.2C18.7,2,19,2,19.2,2.2l6,6
					c0.2,0.2,0.2,0.5,0,0.7s-0.5,0.2-0.7,0l-5.7-5.7L6,16.2C5.9,16.3,5.7,16.3,5.6,16.3z"/>
			</g>
		</g>
		<g id="Shape-Copy">
			<path class="st0" d="M24.3,24.4H7.4c-1.6,0-2.9-1.3-2.9-2.9V4.6c0-1.6,1.3-2.9,2.9-2.9h13.7c0.3,0,0.5,0.2,0.5,0.5
				s-0.2,0.5-0.5,0.5H7.4c-1.1,0-1.9,0.9-1.9,1.9v16.9c0,1.1,0.9,1.9,1.9,1.9h16.9c1.1,0,1.9-0.9,1.9-1.9V10.5
				c0-0.3,0.2-0.5,0.5-0.5s0.5,0.2,0.5,0.5v10.9C27.2,23.1,25.9,24.4,24.3,24.4z"/>
		</g>
		<g id="Shape_1_">
			<path class="st0" d="M26.1,7.3h-2.3c-0.3,0-0.5-0.2-0.5-0.5V4.5c0-0.1,0.1-0.3,0.1-0.4l5.9-5.9c0.1-0.1,0.2-0.1,0.4-0.1l0,0
				c0.1,0,0.3,0.1,0.4,0.1l2.3,2.3c0.2,0.2,0.2,0.5,0,0.7l-5.9,5.9C26.4,7.2,26.3,7.3,26.1,7.3z M24.4,6.3h1.6l5.4-5.4l-1.6-1.6
				l-5.4,5.4V6.3z"/>
		</g>
	</g>
</g>
</svg>
