<?xml version="1.0" encoding="utf-8"?>
<!-- Generator: Adobe Illustrator 21.0.2, SVG Export Plug-In . SVG Version: 6.00 Build 0)  -->
<svg version="1.1" id="Layer_1" xmlns="http://www.w3.org/2000/svg" xmlns:xlink="http://www.w3.org/1999/xlink" x="0px" y="0px"
	 viewBox="0 0 33.2 29.8" style="enable-background:new 0 0 33.2 29.8;" xml:space="preserve">
<style type="text/css">
	.st0{fill:#223042;}
</style>
<title>Icons / Picture / Selected</title>
<desc>Created with Sketch.</desc>
<g id="Icons-_x2F_-Picture-_x2F_-Default">
	<g id="Group" transform="translate(0.500000, 5.479773)">
		<g id="Rectangle-path">
			<path class="st0" d="M24.8,20.9H7.2c-1.4,0-2.5-1.1-2.5-2.5V0.7c0-1.4,1.1-2.5,2.5-2.5h17.7c1.4,0,2.5,1.1,2.5,2.5v17.7
				C27.3,19.8,26.2,20.9,24.8,20.9z M7.2-0.8c-0.8,0-1.5,0.7-1.5,1.5v17.7c0,0.8,0.7,1.5,1.5,1.5h17.7c0.8,0,1.5-0.7,1.5-1.5V0.7
				c0-0.8-0.7-1.5-1.5-1.5H7.2z"/>
		</g>
		<g id="Shape">
			<path class="st0" d="M7.5,20.4c-0.1,0-0.3,0-0.4-0.1c-0.2-0.2-0.2-0.5,0-0.7L20,6.7c0.2-0.2,0.5-0.2,0.7,0l5.9,5.9
				c0.2,0.2,0.2,0.5,0,0.7s-0.5,0.2-0.7,0l-5.5-5.5L7.9,20.3C7.8,20.4,7.6,20.4,7.5,20.4z"/>
		</g>
		<g id="Oval">
			<path class="st0" d="M11.6,7.6c-1.2,0-2.3-1-2.3-2.3c0-1.2,1-2.3,2.3-2.3c1.2,0,2.3,1,2.3,2.3C13.9,6.5,12.8,7.6,11.6,7.6z
				 M11.6,4c-0.7,0-1.3,0.6-1.3,1.3c0,0.7,0.6,1.3,1.3,1.3c0.7,0,1.3-0.6,1.3-1.3C12.9,4.6,12.3,4,11.6,4z"/>
		</g>
	</g>
</g>
</svg>
