<?xml version="1.0" encoding="utf-8"?>
<!-- Generator: Adobe Illustrator 21.0.2, SVG Export Plug-In . SVG Version: 6.00 Build 0)  -->
<svg version="1.1" id="Layer_1" xmlns="http://www.w3.org/2000/svg" xmlns:xlink="http://www.w3.org/1999/xlink" x="0px" y="0px"
	 viewBox="0 0 16 16" style="enable-background:new 0 0 16 16;" xml:space="preserve">
<style type="text/css">
	.st0{fill:#223042;}
</style>
<title>Icons / Delete</title>
<desc>Created with Sketch.</desc>
<g>
	<path class="st0" d="M14.2,3.3h-3V2.4c0-1.1-0.9-1.9-1.9-1.9H6.4c-1.1,0-1.9,0.9-1.9,1.9v0.9h-3C1.2,3.3,1,3.5,1,3.8
		s0.2,0.5,0.5,0.5h0.9v9.4c0,1.1,0.9,1.9,1.9,1.9h7.1c1.1,0,1.9-0.9,1.9-1.9V4.3h0.9c0.3,0,0.5-0.2,0.5-0.5S14.5,3.3,14.2,3.3z
		 M5.5,2.4c0-0.5,0.4-0.9,0.9-0.9h2.8c0.5,0,0.9,0.4,0.9,0.9v0.9H5.5V2.4z M12.3,13.7c0,0.5-0.4,0.9-0.9,0.9H4.3
		c-0.5,0-0.9-0.4-0.9-0.9V4.3h8.9V13.7z"/>
	<path class="st0" d="M6.4,6.9c-0.3,0-0.5,0.2-0.5,0.5v4.2c0,0.3,0.2,0.5,0.5,0.5s0.5-0.2,0.5-0.5V7.4C6.9,7.1,6.7,6.9,6.4,6.9z"/>
	<path class="st0" d="M9.3,6.9C9,6.9,8.8,7.1,8.8,7.4v4.2c0,0.3,0.2,0.5,0.5,0.5s0.5-0.2,0.5-0.5V7.4C9.8,7.1,9.5,6.9,9.3,6.9z"/>
</g>
</svg>
