<?xml version="1.0" encoding="utf-8"?>
<!-- Generator: Adobe Illustrator 21.0.2, SVG Export Plug-In . SVG Version: 6.00 Build 0)  -->
<svg version="1.1" id="Layer_1" xmlns="http://www.w3.org/2000/svg" xmlns:xlink="http://www.w3.org/1999/xlink" x="0px" y="0px"
	 viewBox="0 0 16 16" style="enable-background:new 0 0 16 16;" xml:space="preserve">
<style type="text/css">
	.st0{fill:#223042;}
</style>
<title>Icons / Description</title>
<desc>Created with Sketch.</desc>
<g>
	<path class="st0" d="M8.1,0.8C4,0.8,0.8,4,0.8,8c0,4,3.3,7.2,7.3,7.2S15.4,12,15.4,8C15.4,4,12.1,0.8,8.1,0.8z M8.1,14.2
		c-3.5,0-6.3-2.8-6.3-6.2s2.8-6.2,6.3-6.2c3.5,0,6.3,2.8,6.3,6.2S11.6,14.2,8.1,14.2z"/>
	<path class="st0" d="M8,7.4c-0.3,0-0.5,0.2-0.5,0.5v2.6C7.5,10.8,7.7,11,8,11s0.5-0.2,0.5-0.5V7.9C8.5,7.6,8.3,7.4,8,7.4z"/>
	<circle class="st0" cx="8" cy="5.6" r="1"/>
</g>
</svg>
