<?xml version="1.0" encoding="utf-8"?>
<!-- Generator: Adobe Illustrator 21.0.2, SVG Export Plug-In . SVG Version: 6.00 Build 0)  -->
<svg version="1.1" id="Layer_1" xmlns="http://www.w3.org/2000/svg" xmlns:xlink="http://www.w3.org/1999/xlink" x="0px" y="0px"
	 viewBox="0 0 16 16" style="enable-background:new 0 0 16 16;" xml:space="preserve">
<style type="text/css">
	.st0{fill:#223042;}
</style>
<title>Icons / Email / Blue</title>
<desc>Created with Sketch.</desc>
<path class="st0" d="M14,2H2C1.2,2,0.5,2.7,0.5,3.5v9C0.5,13.3,1.2,14,2,14h12c0.8,0,1.5-0.7,1.5-1.5v-9C15.5,2.7,14.8,2,14,2z
	 M14,3c0.1,0,0.2,0,0.3,0.1l-6.2,4l-6.2-4c0,0-0.1,0-0.1,0C1.8,3,1.9,3,2,3H14z M14,13H2c-0.3,0-0.5-0.2-0.5-0.5V4.1l6.3,4.1
	C7.9,8.2,8,8.2,8.1,8.2s0.2,0,0.3-0.1l6.1-4v8.3C14.5,12.8,14.3,13,14,13z"/>
</svg>
