<?xml version="1.0" encoding="utf-8"?>
<!-- Generator: Adobe Illustrator 21.0.2, SVG Export Plug-In . SVG Version: 6.00 Build 0)  -->
<svg version="1.1" id="Layer_1" xmlns="http://www.w3.org/2000/svg" xmlns:xlink="http://www.w3.org/1999/xlink" x="0px" y="0px"
	 viewBox="0 0 15 15" style="enable-background:new 0 0 15 15;" xml:space="preserve">
<style type="text/css">
	.st0{fill:#FF9D9D;}
</style>
<title>Icons / Members / Show All / Default</title>
<desc>Created with Sketch.</desc>
<g>
	<path class="st0" d="M6.3,2.9c0.4-0.1,0.8-0.2,1.2-0.1c3.6,0,5.9,3.6,6.4,4.6c-0.3,0.6-0.7,1.2-1.2,1.7c-0.2,0.2-0.2,0.5,0.1,0.7
		c0.1,0.1,0.2,0.1,0.3,0.1c0.1,0,0.3-0.1,0.4-0.2c0.5-0.6,1-1.4,1.4-2.1c0.1-0.1,0.1-0.3,0-0.5c-0.1-0.2-2.7-5.4-7.4-5.4
		c-0.4,0-1,0.1-1.5,0.2C5.8,2,5.6,2.2,5.7,2.5C5.7,2.8,6,3,6.3,2.9z"/>
	<path class="st0" d="M14.9,14.1l-14-14C0.7,0,0.3,0,0.1,0.1S0,0.7,0.1,0.9l2.8,2.8c-1.2,1-2.1,2.2-2.8,3.5C0,7.2,0,7.4,0.1,7.6
		c0.1,0.2,2.7,5.4,7.5,5.4c1.3,0,2.5-0.4,3.6-1.1l3,3c0.1,0.1,0.2,0.1,0.4,0.1s0.3,0,0.4-0.1C15,14.7,15,14.3,14.9,14.1z M6.2,6.9
		L8,8.7C7.7,8.8,7.4,8.8,7.1,8.8c-0.5-0.1-0.9-0.5-1-1C6,7.4,6,7.1,6.2,6.9z M7.5,11.9c-3.6,0-5.9-3.6-6.4-4.6
		c0.7-1.2,1.5-2.2,2.5-3l1.8,1.8C5.1,6.7,5,7.3,5.1,8C5.3,8.8,6,9.5,6.9,9.7c0.2,0.1,0.4,0.1,0.6,0.1c0.4,0,0.9-0.1,1.3-0.4l1.7,1.7
		C9.5,11.6,8.5,11.9,7.5,11.9z"/>
</g>
</svg>
