<?xml version="1.0" encoding="utf-8"?>
<!-- Generator: Adobe Illustrator 21.0.2, SVG Export Plug-In . SVG Version: 6.00 Build 0)  -->
<svg version="1.1" id="Layer_1" xmlns="http://www.w3.org/2000/svg" xmlns:xlink="http://www.w3.org/1999/xlink" x="0px" y="0px"
	 viewBox="0 0 16 16" style="enable-background:new 0 0 16 16;" xml:space="preserve">
<style type="text/css">
	.st0{fill:#223042;}
</style>
<title>Icons / Members Check</title>
<desc>Created with Sketch.</desc>
<g>
	<g>
		<path class="st0" d="M11.9,15H0.5C0.2,15,0,14.7,0,14.5v-1.5c0-2,1.6-3.5,3.5-3.5h5.3c2,0,3.5,1.6,3.5,3.5v1.5
			C12.4,14.7,12.2,15,11.9,15z M1,14h10.4v-1c0-1.4-1.1-2.5-2.5-2.5H3.5c-1.4,0-2.5,1.1-2.5,2.5V14z"/>
	</g>
	<g>
		<path class="st0" d="M6,8.1c-2,0-3.5-1.6-3.5-3.5S4.1,1,6,1s3.5,1.6,3.5,3.5S8,8.1,6,8.1z M6,2C4.6,2,3.5,3.1,3.5,4.5
			S4.6,7.1,6,7.1S8.6,6,8.6,4.5S7.5,2,6,2z"/>
	</g>
	<g>
		<path class="st0" d="M12.5,8.9c-0.1,0-0.3,0-0.4-0.1l-1.5-1.5c-0.1-0.1-0.2-0.3-0.1-0.5c0-0.2,0.2-0.3,0.3-0.4l4.6-1.5
			c0.2-0.1,0.5,0,0.6,0.2c0.1,0.2,0.1,0.5-0.1,0.6l-3,3C12.8,8.8,12.7,8.9,12.5,8.9z M11.9,7.1l0.6,0.6l1.2-1.2L11.9,7.1z"/>
	</g>
</g>
</svg>
