<?xml version="1.0" encoding="utf-8"?>
<!-- Generator: Adobe Illustrator 21.0.2, SVG Export Plug-In . SVG Version: 6.00 Build 0)  -->
<svg version="1.1" id="Layer_1" xmlns="http://www.w3.org/2000/svg" xmlns:xlink="http://www.w3.org/1999/xlink" x="0px" y="0px"
	 viewBox="0 0 16 16" style="enable-background:new 0 0 16 16;" xml:space="preserve">
<style type="text/css">
	.st0{fill:#223042;}
</style>
<title>Icons / Ownership</title>
<desc>Created with Sketch.</desc>
<g>
	<path class="st0" d="M8,15.2c-0.1,0-0.2,0-0.2-0.1C7.5,15.1,2,12.3,2,7.9V3.1c0-0.2,0.1-0.4,0.3-0.5l5.5-2.1c0.1,0,0.2,0,0.4,0
		l5.5,2.1C13.9,2.7,14,2.9,14,3.1v4.8c0,4.4-5.5,7.2-5.8,7.3C8.2,15.2,8.1,15.2,8,15.2z M3,3.4v4.5c0,3.3,4,5.8,5,6.3
		c1-0.6,5-3,5-6.3V3.4L8,1.5L3,3.4z"/>
</g>
</svg>
