<?xml version="1.0" encoding="utf-8"?>
<!-- Generator: Adobe Illustrator 21.0.2, SVG Export Plug-In . SVG Version: 6.00 Build 0)  -->
<svg version="1.1" id="Layer_1" xmlns="http://www.w3.org/2000/svg" xmlns:xlink="http://www.w3.org/1999/xlink" x="0px" y="0px"
	 viewBox="0 0 16 16" style="enable-background:new 0 0 16 16;" xml:space="preserve">
<style type="text/css">
	.st0{fill:#223042;}
</style>
<title>Icons / Pending Invitations</title>
<desc>Created with Sketch.</desc>
<g>
	<path class="st0" d="M8,0.8C4,0.8,0.8,4,0.8,8c0,4,3.3,7.2,7.2,7.2c4,0,7.2-3.3,7.2-7.2C15.2,4,12,0.8,8,0.8z M8,14.2
		c-3.4,0-6.2-2.8-6.2-6.2S4.6,1.8,8,1.8s6.2,2.8,6.2,6.2S11.4,14.2,8,14.2z"/>
	<path class="st0" d="M10.8,9.8L8.5,8.6V5c0-0.3-0.2-0.5-0.5-0.5S7.5,4.7,7.5,5v3.9c0,0.2,0.1,0.4,0.3,0.4l2.6,1.3
		c0.1,0,0.1,0.1,0.2,0.1c0.2,0,0.4-0.1,0.4-0.3C11.2,10.2,11.1,9.9,10.8,9.8z"/>
</g>
</svg>
