<?xml version="1.0" encoding="utf-8"?>
<!-- Generator: Adobe Illustrator 21.0.2, SVG Export Plug-In . SVG Version: 6.00 Build 0)  -->
<svg version="1.1" id="Layer_1" xmlns="http://www.w3.org/2000/svg" xmlns:xlink="http://www.w3.org/1999/xlink" x="0px" y="0px"
	 viewBox="0 0 128.2 39.3" style="enable-background:new 0 0 128.2 39.3;" xml:space="preserve">
<style type="text/css">
	.st0{clip-path:url(#SVGID_2_);}
	.st1{fill:#A8D9F4;}
</style>
<g>
	<g>
		<defs>
			<path id="SVGID_1_" d="M23.9,27.3c-0.8-0.8-2.2-0.8-3,0l-1.2,1.2l-5.9-5.6l1.6-1.6c1.1-1.1,1.1-2.8,0-3.8l-1.7-1.7l5.5-5.4
				l1.6,1.6c0.8,0.8,2.2,0.8,3,0l4.1-4.1c0.8-0.8,0.8-2.2,0-3l-4-4c-0.8-0.8-2.2-0.8-3,0L16.8,5c-0.8,0.8-0.8,2.2,0,3l0.9,0.9
				l-5.5,5.4l-1.9-1.9c-1.1-1.1-2.8-1.1-3.8,0l-5.1,5.1c-1.1,1.1-1.1,2.8,0,3.8l5,5c1.1,1.1,2.8,1.1,3.8,0l2-2l5.9,5.6l-1.4,1.4
				c-0.8,0.8-0.8,2.2,0,3l4,4c0.8,0.8,2.2,0.8,3,0l4.1-4.1c0.8-0.8,0.8-2.2,0-3L23.9,27.3z M22.4,2.9l3.3,3.3l-3.6,3.6l-3.3-3.3
				L22.4,2.9z M8.1,23.9l-4.5-4.5l4.9-4.9l4.5,4.5L8.1,23.9z M22.1,36.2l-3.3-3.3l3.6-3.6l3.3,3.3L22.1,36.2z"/>
		</defs>
		<clipPath id="SVGID_2_">
			<use xlink:href="#SVGID_1_"  style="overflow:visible;"/>
		</clipPath>
		<g id="OMypjy.tif_23_" class="st0">
			
				<image style="overflow:visible;" width="530" height="131" id="Layer_1_1_" xlink:href="E259DEF545C63C9C.png"  transform="matrix(0.4754 4.376741e-04 -5.836255e-04 0.634 -72.1202 -31.6107)">
			</image>
		</g>
	</g>
	<path class="st1" d="M35.1,24.6l0.8-1c0.8,1,2.4,1.9,4.2,1.9c2.2,0,3.5-1.1,3.5-2.6c0-3.5-8.2-1.5-8.1-6.2c0-2,1.7-3.6,4.6-3.6
		c2.2,0,3.7,0.9,4.6,1.9l-0.8,1c-0.7-1-2.1-1.7-3.8-1.7c-2,0-3.2,1-3.2,2.3c0,3.2,8.1,1.3,8.1,6.2c0,2.1-1.6,3.8-4.8,3.8
		C38,26.7,36.4,26.1,35.1,24.6z M47.1,19.9c0-3.7,2.6-6.8,6.2-6.8c3.9,0,6.1,3.1,6.1,6.9l0,0.4l-10.8,0c0.1,2.8,2,5.1,5,5.1
		c1.6,0,3.1-0.6,4.2-1.8l0.7,0.9c-1.3,1.3-2.9,2.1-5.1,2.1C49.8,26.7,47.1,23.9,47.1,19.9z M53.3,14.4c-3,0-4.6,2.7-4.7,4.9l9.4,0
		C58,17.1,56.6,14.4,53.3,14.4z M61.2,24.7l0.8-1c0.8,1,2.4,1.9,4.2,1.9c2.2,0,3.5-1.1,3.5-2.6c0-3.5-8.2-1.5-8.1-6.2
		c0-2,1.7-3.6,4.6-3.6c2.2,0,3.7,0.9,4.6,1.9l-0.8,1c-0.7-1-2.1-1.7-3.8-1.7c-2,0-3.2,1-3.2,2.3c0,3.2,8.1,1.3,8.1,6.2
		c0,2.1-1.6,3.8-4.8,3.8C64.1,26.7,62.5,26.1,61.2,24.7z M72.8,24.7l0.8-1c0.8,1,2.4,1.9,4.2,1.9c2.2,0,3.5-1.1,3.5-2.6
		c0-3.5-8.2-1.5-8.1-6.2c0-2,1.7-3.6,4.6-3.6c2.2,0,3.7,0.9,4.6,1.9l-0.8,1c-0.7-1-2.1-1.7-3.8-1.7c-2,0-3.2,1-3.2,2.3
		c0,3.2,8.1,1.3,8.1,6.2c0,2.1-1.6,3.8-4.8,3.8C75.7,26.7,74.1,26.1,72.8,24.7z M85.2,10.4c0-0.6,0.5-1,1.1-1c0.6,0,1.1,0.5,1.1,1
		s-0.5,1.1-1.1,1.1C85.7,11.5,85.2,11,85.2,10.4z M85.6,26.4l0-12.9l1.4,0l0,12.9L85.6,26.4z M89.9,20c0-3.8,2.4-6.8,6.2-6.8
		c3.8,0,6.2,3,6.2,6.8c0,3.8-2.4,6.8-6.2,6.8C92.3,26.7,89.9,23.7,89.9,20z M100.8,20c0-2.9-1.7-5.5-4.7-5.5c-3,0-4.7,2.6-4.7,5.5
		c0,2.9,1.7,5.5,4.7,5.5C99.1,25.5,100.8,22.8,100.8,20z M113.9,26.4l0-8.7c0-2.5-1.3-3.2-3.1-3.2c-1.7,0-3.4,1-4.2,2.2l0,9.8
		l-1.4,0l0-12.9l1.4,0l0,2c0.9-1.1,2.8-2.3,4.7-2.3c2.6,0,4.1,1.3,4.1,4.2l0,9L113.9,26.4z M117.9,24.7l0.8-1c0.8,1,2.4,1.9,4.2,1.9
		c2.2,0,3.5-1.1,3.5-2.6c0-3.5-8.2-1.5-8.1-6.2c0-2,1.7-3.6,4.6-3.6c2.2,0,3.7,0.9,4.6,1.9l-0.8,1c-0.7-1-2.1-1.7-3.8-1.7
		c-2,0-3.2,1-3.2,2.3c0,3.2,8.1,1.3,8.1,6.2c0,2.1-1.6,3.8-4.8,3.8C120.8,26.8,119.2,26.2,117.9,24.7z"/>
</g>
</svg>
