<?xml version="1.0" encoding="utf-8"?>
<!-- Generator: Adobe Illustrator 21.0.2, SVG Export Plug-In . SVG Version: 6.00 Build 0)  -->
<svg version="1.1" id="Layer_1" xmlns="http://www.w3.org/2000/svg" xmlns:xlink="http://www.w3.org/1999/xlink" x="0px" y="0px"
	 viewBox="0 0 16 16" style="enable-background:new 0 0 16 16;" xml:space="preserve">
<style type="text/css">
	.st0{fill:#223042;}
</style>
<title>Icons / Tag</title>
<desc>Created with Sketch.</desc>
<g>
	<path class="st0" d="M14.8,1h-7C7.6,1,7.5,1.1,7.4,1.1l-6,5.9C1,7.4,0.8,7.9,0.8,8.4c0,0.5,0.2,1,0.6,1.3c0,0,0,0,0,0l5,5
		c0.4,0.4,0.8,0.5,1.3,0.5c0.5,0,1-0.2,1.3-0.5l6-5.9c0.1-0.1,0.1-0.2,0.1-0.4V1.5C15.2,1.2,15,1,14.8,1z M14.2,8.2L8.4,14
		c-0.3,0.3-0.9,0.3-1.3,0l-5-5C1.9,8.9,1.9,8.6,1.8,8.4c0-0.2,0.1-0.5,0.3-0.6L8,2h6.3V8.2z"/>
	<path class="st0" d="M11.1,6.6c1,0,1.8-0.8,1.8-1.8S12.1,3,11.1,3S9.4,3.8,9.4,4.8S10.2,6.6,11.1,6.6z M11.1,4
		c0.4,0,0.8,0.3,0.8,0.8c0,0.4-0.4,0.8-0.8,0.8c-0.4,0-0.8-0.3-0.8-0.8C10.4,4.4,10.7,4,11.1,4z"/>
</g>
</svg>
