<?xml version="1.0" encoding="utf-8"?>
<!-- Generator: Adobe Illustrator 21.0.2, SVG Export Plug-In . SVG Version: 6.00 Build 0)  -->
<svg version="1.1" id="Layer_1" xmlns="http://www.w3.org/2000/svg" xmlns:xlink="http://www.w3.org/1999/xlink" x="0px" y="0px"
	 viewBox="0 0 128.7 40.2" style="enable-background:new 0 0 128.7 40.2;" xml:space="preserve">
<style type="text/css">
	.st0{clip-path:url(#SVGID_2_);}
	.st1{fill:#A8D9F4;}
</style>
<title>sessions-logo-nav</title>
<g>
	<defs>
		<path id="SVGID_1_" d="M23.9,27.7c-0.8-0.8-2.2-0.8-3,0l-1.2,1.2l-5.9-5.6l1.6-1.6c1.1-1.1,1.1-2.8,0-3.8l-1.7-1.7l5.5-5.4
			l1.6,1.6c0.8,0.8,2.2,0.8,3,0l4.1-4.1c0.8-0.8,0.8-2.2,0-3l-4-4c-0.8-0.8-2.2-0.8-3,0l-4,4.1c-0.8,0.8-0.8,2.2,0,3l0.9,0.9
			l-5.5,5.4l-1.9-1.9c-1.1-1.1-2.8-1.1-3.8,0L1.4,18c-1.1,1.1-1.1,2.8,0,3.8l5,5c1.1,1.1,2.8,1.1,3.8,0l2-2l5.9,5.6l-1.4,1.4
			c-0.8,0.8-0.8,2.2,0,3l4,4c0.8,0.8,2.2,0.8,3,0l4.1-4.1c0.8-0.8,0.8-2.2,0-3L23.9,27.7z M22.4,3.3l3.3,3.3l-3.6,3.6l-3.3-3.3
			L22.4,3.3z M8.1,24.4l-4.5-4.5L8.5,15l4.5,4.5L8.1,24.4z M22.1,36.6l-3.3-3.3l3.6-3.6l3.3,3.3L22.1,36.6z"/>
	</defs>
	<clipPath id="SVGID_2_">
		<use xlink:href="#SVGID_1_"  style="overflow:visible;"/>
	</clipPath>
	<g class="st0">
		<g id="OMypjy.tif">
			
				<image style="overflow:visible;enable-background:new    ;" width="530" height="131" id="Layer_1-2" xlink:href="D62705E88232DB07.png"  transform="matrix(0.48 0 0 0.63 -72.0867 -31.1667)">
			</image>
		</g>
	</g>
</g>
<path class="st1" d="M35.2,25.1l0.8-1c1,1.2,2.6,1.9,4.2,1.9c2.2,0,3.5-1.1,3.5-2.6c0-3.5-8.1-1.5-8.1-6.2c0-2,1.7-3.6,4.6-3.6
	c1.7-0.1,3.4,0.6,4.6,1.9l-0.8,1c-1-1.1-2.4-1.8-3.9-1.7c-2,0-3.2,1-3.2,2.4c0,3.2,8.1,1.3,8.1,6.2c0,2.1-1.6,3.8-4.8,3.8
	C38.2,27.2,36.4,26.5,35.2,25.1z M47.2,20.4c0-3.7,2.6-6.8,6.2-6.8c3.9,0,6.1,3.1,6.1,6.9v0.4H48.7c0.1,2.8,2,5.1,5,5.1
	c1.6,0,3.1-0.6,4.2-1.8l0.7,0.9c-1.3,1.4-3.1,2.1-5,2.1C49.9,27.2,47.2,24.3,47.2,20.4L47.2,20.4z M53.4,14.8c-3,0-4.6,2.7-4.7,4.9
	H58c0.1-2.6-1.9-4.8-4.5-4.9C53.4,14.8,53.4,14.8,53.4,14.8L53.4,14.8z M61.3,25.1l0.8-1c1,1.2,2.6,1.9,4.2,1.9
	c2.2,0,3.4-1.1,3.4-2.6c0-3.5-8.2-1.5-8.2-6.2c0-2,1.7-3.6,4.6-3.6c1.7-0.1,3.4,0.6,4.6,1.9l-0.8,1c-0.9-1.1-2.4-1.8-3.8-1.7
	c-2,0-3.2,1-3.2,2.4c0,3.2,8.1,1.3,8.1,6.2c0,2.1-1.6,3.8-4.8,3.8C64.3,27.3,62.5,26.5,61.3,25.1L61.3,25.1z M72.9,25.1l0.8-1
	c1,1.2,2.6,1.9,4.2,1.9c2.2,0,3.4-1.1,3.4-2.6c0-3.5-8.2-1.5-8.2-6.2c0-2,1.7-3.6,4.6-3.6c1.7-0.1,3.4,0.6,4.6,1.9l-0.8,1
	c-0.9-1.1-2.4-1.8-3.8-1.7c-2,0-3.2,1-3.2,2.4c0,3.2,8.1,1.3,8.1,6.2c0,2.1-1.6,3.8-4.8,3.8C76,27.3,74.1,26.5,72.9,25.1L72.9,25.1z
	 M85.2,10.8c0-0.6,0.5-1,1.1-1c0.6,0,1,0.4,1.1,1c0,0.6-0.5,1.1-1.1,1.1C85.7,11.9,85.3,11.4,85.2,10.8z M85.6,26.8V13.9H87v12.9
	L85.6,26.8z M89.9,20.4c0-3.8,2.4-6.8,6.2-6.8s6.2,3,6.2,6.8s-2.4,6.8-6.2,6.8S89.9,24.2,89.9,20.4z M100.9,20.4
	c0-2.9-1.7-5.5-4.7-5.5s-4.7,2.6-4.7,5.5s1.7,5.5,4.7,5.5S100.8,23.3,100.9,20.4z M114,26.9v-8.8c0-2.5-1.2-3.2-3.1-3.2
	c-1.7,0.1-3.2,0.9-4.2,2.2v9.8h-1.4V14h1.4v2c1.2-1.4,2.9-2.2,4.7-2.3c2.6,0,4.1,1.3,4.1,4.2v9L114,26.9z M117.9,25.2l0.8-1
	c1,1.2,2.6,1.9,4.2,1.9c2.2,0,3.4-1.1,3.4-2.6c0-3.5-8.2-1.5-8.2-6.2c0-2,1.7-3.6,4.6-3.6c1.7-0.1,3.4,0.6,4.6,1.9l-0.8,1
	c-0.9-1.1-2.4-1.8-3.8-1.7c-2,0-3.2,1-3.2,2.4c0,3.2,8.1,1.3,8.1,6.2c0,2.1-1.6,3.8-4.8,3.8C121,27.4,119.2,26.6,117.9,25.2
	L117.9,25.2z"/>
</svg>
