<?xml version="1.0" encoding="UTF-8"?>
<svg width="16px" height="16px" viewBox="0 0 16 16" version="1.1" xmlns="http://www.w3.org/2000/svg" xmlns:xlink="http://www.w3.org/1999/xlink" style="background: #223042;">
    <!-- Generator: Sketch 49.3 (51167) - http://www.bohemiancoding.com/sketch -->
    <title>Icons / Notification / White</title>
    <desc>Created with Sketch.</desc>
    <defs></defs>
    <g id="Icons-/-Notification-/-White" stroke="none" stroke-width="1" fill="none" fill-rule="evenodd">
        <path d="M13.3858857,11.3521 L3.00031429,11.3521 L3.00031429,10.1743143 C4.26374286,9.45302857 4.54031429,8.4701 4.59217143,7.93738571 L4.59295714,7.91145714 C4.59295714,7.91145714 4.57488571,5.51267143 4.57488571,5.38538571 C4.57488571,3.40067143 6.18952857,1.78524286 8.17424286,1.78524286 C10.0473857,1.78524286 11.5873857,3.1901 11.7571,5.02945714 L11.7508143,7.94681429 C11.7908857,8.36638571 12.0328857,9.40352857 13.3858857,10.1735286 L13.3858857,11.3521 Z" id="Fill-1" fill="#FFFFFF"></path>
        <path d="M6.31940714,12.1937571 C6.59990714,12.9559 7.32512143,13.5019714 8.18469286,13.5019714 C9.04347857,13.5019714 9.76869286,12.9559 10.0491929,12.1937571 L6.31940714,12.1937571 Z" id="Fill-4" fill="#FFFFFF"></path>
    </g>
</svg>