<?xml version="1.0" encoding="utf-8"?>
<!-- Generator: Adobe Illustrator 21.0.2, SVG Export Plug-In . SVG Version: 6.00 Build 0)  -->
<svg version="1.1" id="Layer_1" xmlns="http://www.w3.org/2000/svg" xmlns:xlink="http://www.w3.org/1999/xlink" x="0px" y="0px"
	 viewBox="0 0 22.8 22.8" style="enable-background:new 0 0 22.8 22.8;" xml:space="preserve">
<style type="text/css">
	.st0{fill:#223042;}
</style>
<title>Icons / Picture / Default</title>
<desc>Created with Sketch.</desc>
<g>
	<path class="st0" d="M20.2,0H2.5C1.1,0,0,1.1,0,2.5v17.7c0,1.4,1.1,2.5,2.5,2.5h17.7c1.4,0,2.5-1.1,2.5-2.5V2.5
		C22.7,1.1,21.6,0,20.2,0z M1,20.2V2.5C1,1.7,1.7,1,2.5,1h17.7c0.8,0,1.5,0.7,1.5,1.5v11.6l-5.6-5.6c-0.2-0.2-0.5-0.2-0.7,0
		L2.5,21.4c-0.1,0.1-0.1,0.2-0.1,0.3C1.6,21.6,1,21,1,20.2z M20.2,21.7H3.6L15.7,9.6l5.5,5.5c0.1,0.1,0.3,0.2,0.5,0.1v5
		C21.7,21,21,21.7,20.2,21.7z"/>
	<path class="st0" d="M6.9,9.4c1.2,0,2.3-1,2.3-2.3c0-1.2-1-2.3-2.3-2.3c-1.2,0-2.3,1-2.3,2.3C4.7,8.4,5.7,9.4,6.9,9.4z M6.9,5.9
		c0.7,0,1.3,0.6,1.3,1.3c0,0.7-0.6,1.3-1.3,1.3c-0.7,0-1.3-0.6-1.3-1.3C5.7,6.4,6.2,5.9,6.9,5.9z"/>
</g>
</svg>
