<?xml version="1.0" encoding="utf-8"?>
<!-- Generator: Adobe Illustrator 21.0.2, SVG Export Plug-In . SVG Version: 6.00 Build 0)  -->
<svg version="1.1" id="Layer_1" xmlns="http://www.w3.org/2000/svg" xmlns:xlink="http://www.w3.org/1999/xlink" x="0px" y="0px"
	 viewBox="0 0 28 28" style="enable-background:new 0 0 28 28;" xml:space="preserve">
<style type="text/css">
	.st0{fill:#223042;}
</style>
<title>Icons / Picture / Hover</title>
<desc>Created with Sketch.</desc>
<g>
	<path class="st0" d="M4.8,12.1c0,1.3,1,2.3,2.3,2.3c1.3,0,2.3-1,2.3-2.3c0-1.3-1-2.3-2.3-2.3C5.9,9.8,4.8,10.9,4.8,12.1z M8.4,12.1
		c0,0.7-0.6,1.3-1.3,1.3c-0.7,0-1.3-0.6-1.3-1.3c0-0.7,0.6-1.3,1.3-1.3C7.8,10.8,8.4,11.4,8.4,12.1z"/>
	<path class="st0" d="M22.2,13.3c-0.3,0-0.5,0.2-0.5,0.5v4.9l-5.2-5.2c-0.2-0.2-0.5-0.2-0.7,0L2.7,26.7c-1-0.1-1.7-0.9-1.7-1.9V7.9
		C1,6.9,1.9,6,2.9,6h13.7c0.3,0,0.5-0.2,0.5-0.5S16.8,5,16.6,5H2.9C1.3,5,0,6.3,0,7.9v16.9c0,1.6,1.3,2.9,2.9,2.9h16.9
		c1.6,0,2.9-1.3,2.9-2.9V13.8C22.7,13.6,22.5,13.3,22.2,13.3z M21.7,24.8c0,1.1-0.9,1.9-1.9,1.9H4.1l12-12l5.5,5.5V24.8z"/>
	<path class="st0" d="M27.9,3.9l-2.3-2.3c-0.1-0.1-0.2-0.1-0.4-0.1S25,1.6,24.9,1.6L19,7.5c-0.1,0.1-0.1,0.2-0.1,0.4v2.3
		c0,0.3,0.2,0.5,0.5,0.5h2.3c0.1,0,0.3-0.1,0.4-0.1l5.9-5.9C28,4.4,28,4.1,27.9,3.9z M21.4,9.6h-1.6V8.1l5.4-5.4l1.6,1.6L21.4,9.6z"
		/>
</g>
</svg>
