<?xml version="1.0" encoding="utf-8"?>
<!-- Generator: Adobe Illustrator 21.0.2, SVG Export Plug-In . SVG Version: 6.00 Build 0)  -->
<svg version="1.1" id="Layer_1" xmlns="http://www.w3.org/2000/svg" xmlns:xlink="http://www.w3.org/1999/xlink" x="0px" y="0px"
	 viewBox="0 0 33.1 32.2" style="enable-background:new 0 0 33.1 32.2;" xml:space="preserve">
<style type="text/css">
	.st0{fill:#FFFFFF;}
</style>
<title>Icons / Picture / Selected</title>
<desc>Created with Sketch.</desc>
<g>
	<path class="st0" d="M9.9,12.1c0,1.3,1,2.3,2.3,2.3c1.3,0,2.3-1,2.3-2.3c0-1.3-1-2.3-2.3-2.3C11,9.8,9.9,10.9,9.9,12.1z M13.6,12.1
		c0,0.7-0.6,1.3-1.3,1.3c-0.7,0-1.3-0.6-1.3-1.3c0-0.7,0.6-1.3,1.3-1.3C13,10.8,13.6,11.4,13.6,12.1z"/>
	<path class="st0" d="M27.3,13.3c-0.3,0-0.5,0.2-0.5,0.5v4.9l-5.2-5.2c-0.2-0.2-0.5-0.2-0.7,0L7.8,26.7c-1-0.1-1.7-0.9-1.7-1.9V7.9
		C6.1,6.9,7,6,8,6h13.7c0.3,0,0.5-0.2,0.5-0.5S22,5,21.7,5H8C6.4,5,5.1,6.3,5.1,7.9v16.9c0,1.6,1.3,2.9,2.9,2.9h16.9
		c1.6,0,2.9-1.3,2.9-2.9V13.8C27.8,13.6,27.6,13.3,27.3,13.3z M26.8,24.8c0,1.1-0.9,1.9-1.9,1.9H9.2l12-12l5.5,5.5V24.8z"/>
	<path class="st0" d="M33,2.9l-2.3-2.3c-0.1-0.1-0.2-0.1-0.4-0.1S30.1,0.6,30,0.6l-5.9,5.9C24,6.6,24,6.7,24,6.9v2.3
		c0,0.3,0.2,0.5,0.5,0.5h2.3c0.1,0,0.3-0.1,0.4-0.1L33,3.6C33.2,3.4,33.2,3.1,33,2.9z M26.5,8.6H25V7.1l5.4-5.4l1.6,1.6L26.5,8.6z"
		/>
</g>
</svg>
