<?xml version="1.0" encoding="UTF-8"?>
<svg width="15px" height="15px" viewBox="0 0 15 15" version="1.1" xmlns="http://www.w3.org/2000/svg" xmlns:xlink="http://www.w3.org/1999/xlink" style="background: #FFFFFF;">
    <!-- Generator: Sketch 49.3 (51167) - http://www.bohemiancoding.com/sketch -->
    <title>Icons / Members / Show All / Hover</title>
    <desc>Created with Sketch.</desc>
    <defs></defs>
    <g id="Icons-/-Members-/-Show-All-/-Hover" stroke="none" stroke-width="1" fill="none" fill-rule="evenodd" stroke-linecap="round" stroke-linejoin="round">
        <path d="M11.28,11.1209251 C10.1921936,11.9501084 8.86761384,12.4094744 7.5,12.4318342 C3.04545455,12.4318342 0.5,7.34092512 0.5,7.34092512 C1.2915663,5.86576781 2.38944983,4.57694801 3.72,3.56092512 M6.16363636,2.4027433 C6.60166601,2.30021208 7.05013168,2.24895886 7.5,2.25001602 C11.9545455,2.25001602 14.5,7.34092512 14.5,7.34092512 C14.1137143,8.06358434 13.6530353,8.74393899 13.1254545,9.37092512 M8.84909091,8.69001602 C8.3731658,9.20076957 7.65640407,9.41101394 6.97999187,9.23827013 C6.30357966,9.06552632 5.77539879,8.53734545 5.60265498,7.86093325 C5.42991117,7.18452104 5.64015555,6.46775932 6.15090909,5.99183421" id="Shape" stroke="#223042"></path>
        <path d="M0.5,0.5 L14.5,14.5" id="Shape" stroke="#223042"></path>
    </g>
</svg>