<?xml version="1.0" encoding="utf-8"?>
<!-- Generator: Adobe Illustrator 21.0.2, SVG Export Plug-In . SVG Version: 6.00 Build 0)  -->
<svg version="1.1" id="Layer_1" xmlns="http://www.w3.org/2000/svg" xmlns:xlink="http://www.w3.org/1999/xlink" x="0px" y="0px"
	 viewBox="0 0 15 15" style="enable-background:new 0 0 15 15;" xml:space="preserve">
<style type="text/css">
	.st0{fill:#FF9D9D;}
</style>
<title>Icons / Members / Hide All / Default</title>
<desc>Created with Sketch.</desc>
<g>
	<path class="st0" d="M14.9,7.1c-0.1-0.2-2.7-5.4-7.4-5.4c-4.7,0-7.3,5.1-7.4,5.4C0,7.3,0,7.4,0.1,7.6c0.1,0.2,2.7,5.4,7.4,5.4
		c4.7,0,7.3-5.1,7.4-5.4C15,7.4,15,7.3,14.9,7.1z M7.5,11.9c-3.6,0-5.9-3.6-6.4-4.6c0.5-0.9,2.8-4.6,6.4-4.6c3.6,0,5.9,3.6,6.4,4.6
		C13.4,8.3,11.1,11.9,7.5,11.9z"/>
	<path class="st0" d="M7.5,4.9C6.2,4.9,5.1,6,5.1,7.3s1.1,2.4,2.4,2.4c1.3,0,2.4-1.1,2.4-2.4S8.8,4.9,7.5,4.9z M7.5,8.8
		c-0.8,0-1.4-0.6-1.4-1.4s0.6-1.4,1.4-1.4c0.8,0,1.4,0.6,1.4,1.4S8.3,8.8,7.5,8.8z"/>
</g>
</svg>
